{"title":"Busty Milf With XXL tits rammed &amp; fucking[VPSR].flv","uid":10748909,"size":117252325,"categoryP":"porn","categoryS":"other","magnet":"?xt=urn:btih:64a96f5aff5fca6241680704b3277ffb072d8c41&amp;dn=Busty+Milf+With+XXL+tits+rammed+%26amp%3B+fucking%5BVPSR%5D.flv&amp;tr=udp%3A%2F%2Ftracker.openbittorrent.com%3A80&amp;tr=udp%3A%2F%2Fopen.demonii.com%3A1337&amp;tr=udp%3A%2F%2Ftracker.coppersurfer.tk%3A6969&amp;tr=udp%3A%2F%2Fexodus.desync.com%3A6969","seeders":0,"leechers":1,"uploader":"vpsr","files":1,"time":1407854877,"description":"Busty Milf With XXL tits rammed &amp; fucking[VPSR].flv\n\n &lt;a href=&quot;\nhttp://s25.postimg.org/ray35abvj/image.jpg&quot; rel=&quot;nofollow&quot; target=&quot;_NEW&quot;&gt;\nhttp://s25.postimg.org/ray35abvj/image.jpg&lt;/a&gt;\n\n\n &lt;a href=&quot;\nhttp://s25.postimg.org/3y01mrvrz/Busty_Milf_With_XXL_tits_rammed_fucking_VPSR.jpg&quot; rel=&quot;nofollow&quot; target=&quot;_NEW&quot;&gt;\nhttp://s25.postimg.org/3y01mrvrz/Busty_Milf_With_XXL_tits_rammed_fucking_VPSR.jpg&lt;/a&gt;\n\nFILE INFO\n\n\nGeneral\nComplete name                            : Busty Milf With XXL tits rammed &amp; fucking[VPSR].flv\nFormat                                   : Flash Video\nFile size                                : 112 MiB\nDuration                                 : 27mn 8s\nOverall bit rate                         : 576 Kbps\nTagged date                              : UTC 2014-08-11 04:38:35\nTagging application                      : flvtool++ (Facebook, Motion project, dweatherford)\n\nVideo\nFormat                                   : AVC\nFormat/Info                              : Advanced Video Codec\nFormat profile                           : &lt;a class=&quot;__cf_email__&quot; href=&quot;/cdn-cgi/l/email-protection&quot; data-cfemail=&quot;f6be9f919eb6bac4d8c7&quot;&gt;[email&amp;#160;protected]&lt;/a&gt;&lt;script cf-hash='f9e31' type=&quot;text/javascript&quot;&gt;\n/* &lt;![CDATA[ */!function(){try{var t=&quot;currentScript&quot;in document?document.currentScript:function(){for(var t=document.getElementsByTagName(&quot;script&quot;),e=t.length;e--;)if(t[e].getAttribute(&quot;cf-hash&quot;))return t[e]}();if(t&amp;&amp;t.previousSibling){var e,r,n,i,c=t.previousSibling,a=c.getAttribute(&quot;data-cfemail&quot;);if(a){for(e=&quot;&quot;,r=parseInt(a.substr(0,2),16),n=2;a.length-n;n+=2)i=parseInt(a.substr(n,2),16)^r,e+=String.fromCharCode(i);e=document.createTextNode(e),c.parentNode.replaceChild(e,c)}}}catch(u){}}();/* ]]&gt; */&lt;/script&gt;\nFormat settings, CABAC                   : Yes\nFormat settings, ReFrames                : 4 frames\nCodec ID                                 : 7\nDuration                                 : 27mn 8s\nBit rate                                 : 512 Kbps\nWidth                                    : 426 pixels\nHeight                                   : 240 pixels\nDisplay aspect ratio                     : 16:9\nFrame rate mode                          : Constant\nFrame rate                               : 29.970 fps\nColor space                              : YUV\nChroma subsampling                       : 4:2:0\nBit depth                                : 8 bits\nScan type                                : Progressive\nBits/(Pixel*Frame)                       : 0.167\nStream size                              : 99.6 MiB (89%)\nWriting library                          : x264 core 125\n\nAudio\nFormat                                   : AAC\nFormat/Info                              : Advanced Audio Codec\nFormat profile                           : LC\nCodec ID                                 : 10\nDuration                                 : 27mn 8s\nBit rate                                 : 53.4 Kbps\nChannel(s)                               : 2 channels\nChannel positions                        : Front: L R\nSampling rate                            : 48.0 KHz\nCompression mode                         : Lossy\nStream size                              : 10.4 MiB (9%)\n\n","torrent":{"xt":"urn:btih:64a96f5aff5fca6241680704b3277ffb072d8c41","amp;dn":"Busty+Milf+With+XXL+tits+rammed+%26amp%3B+fucking%5BVPSR%5D.flv","amp;tr":["udp%3A%2F%2Ftracker.openbittorrent.com%3A80","udp%3A%2F%2Fopen.demonii.com%3A1337","udp%3A%2F%2Ftracker.coppersurfer.tk%3A6969","udp%3A%2F%2Fexodus.desync.com%3A6969"],"infoHash":"64a96f5aff5fca6241680704b3277ffb072d8c41","infoHashBuffer":{"type":"Buffer","data":[100,169,111,90,255,95,202,98,65,104,7,4,179,39,127,251,7,45,140,65]},"announce":[],"urlList":[]}}